# xmcd
#
# Track frame offsets: 
#        150
#        14337
#        36132
#        55233
#        81427
#        105370
#        139810
#        160808
#        195318
#        226578
#        254672
#
# Disc length: 3808 seconds
#
# Revision: 9
# Processed by: cddbd v1.5.2PL0 Copyright (c) Steve Scherf et al.
# Submitted via: ExactAudioCopyFreeDBPlugin 1.0
#
DISCID=850ede0b
DTITLE=John Mayer Trio - TRY!
DYEAR=2005
DGENRE=Blues
TTITLE0=Who Did You Think I Was
TTITLE1=Good Love Is on the Way
TTITLE2=Wait Until Tomorrow
TTITLE3=Gravity
TTITLE4=Vultures
TTITLE5=Out of My Mind
TTITLE6=Another Kind of Green
TTITLE7=I Got a Woman
TTITLE8=Something's Missing
TTITLE9=Daughters
TTITLE10=Try
EXTD=CD subtitle: Live in Concert\nJohn Mayer: guitar, vocals\nPino Pa
EXTD=lladino: bass, vocals\nSteve Ja.\nMixed by Joe Ferla at Avatar, N
EXTD=ew York US-NY.\nProduced by John Mayer and Steve Jordan.\nCD YEAR
EXTD=: 2005
EXTT0=(John Mayer)
EXTT1=(John Mayer/Steve Jordan/Pino Palladino)
EXTT2=(Jimi Hendrix)
EXTT3=(John Mayer)
EXTT4=(John Mayer/Steve Jordan/Pino Palladino)
EXTT5=(John Mayer)
EXTT6=(John Mayer)
EXTT7=(Ray Charles/Renald Richards)
EXTT8=(John Mayer)
EXTT9=(John Mayer)
EXTT10=(John Mayer/Steve Jordan/Pino Palladino)
PLAYORDER=
